<?xml version="1.0" standalone="no"?>
<!DOCTYPE svg PUBLIC "-//W3C//DTD SVG 20010904//EN"
 "http://www.w3.org/TR/2001/REC-SVG-20010904/DTD/svg10.dtd">
<svg version="1.0" xmlns="http://www.w3.org/2000/svg"
 width="320.000000pt" height="322.000000pt" viewBox="0 0 320.000000 322.000000"
 preserveAspectRatio="xMidYMid meet">

<g transform="translate(0.000000,322.000000) scale(0.100000,-0.100000)"
fill="#000000" stroke="none">
<path d="M1896 2350 c8 -35 -9 -52 -100 -100 -54 -29 -95 -64 -96 -82 0 -5 18
-8 40 -8 75 0 146 -59 174 -144 22 -64 13 -124 -28 -184 -51 -75 -84 -86 -266
-90 l-155 -3 -66 -59 c-37 -33 -69 -56 -73 -53 -3 4 -6 39 -6 78 0 60 -3 75
-20 90 -39 35 -60 82 -67 149 l-8 68 -22 -19 c-12 -11 -34 -28 -48 -39 -26
-18 -26 -22 -20 -86 5 -57 4 -68 -9 -68 -24 0 -36 34 -37 106 l-1 67 -24 -29
c-22 -26 -24 -36 -20 -94 21 -261 260 -472 531 -472 161 1 285 51 395 162 113
113 164 239 163 400 -1 157 -56 283 -168 389 -62 59 -77 63 -69 21z"/>
<path d="M1380 1990 c-11 -11 -20 -29 -20 -39 0 -20 35 -51 57 -51 18 0 53 37
53 55 0 8 -9 24 -20 35 -11 11 -27 20 -35 20 -8 0 -24 -9 -35 -20z"/>
<path d="M1547 1992 c-21 -23 -22 -56 -1 -76 32 -32 84 -11 84 34 0 53 -50 78
-83 42z"/>
<path d="M1710 1990 c-11 -11 -20 -27 -20 -35 0 -18 35 -55 53 -55 24 0 57 31
57 54 0 26 -28 56 -53 56 -9 0 -26 -9 -37 -20z"/>
</g>
</svg>
